ffmpeg started on 2016-12-02 at 05:50:49
Report written to "Output/x264/results/ffmpeg/old_town_cross_2160p50slower7000k.log"
Command line:
Tools/ffmpeg/ffmpeg -benchmark -y -i Input/y4m/old_town_cross_2160p50.y4m -c:v libx264 -preset slower -b:v 7000k -an Output/x264/encoded/old_town_cross_2160p50slower7000k.mkv
ffmpeg version N-82227-gdb23fde Copyright (c) 2000-2016 the FFmpeg developers
  built with gcc 5.4.0 (Ubuntu 5.4.0-6ubuntu1~16.04.2) 20160609
  configuration: --prefix=/home/jaroslav/ffmpeg_build --pkg-config-flags=--static --extra-cflags=-I/home/jaroslav/ffmpeg_build/include --extra-ldflags=-L/home/jaroslav/ffmpeg_build/lib --bindir=/home/jaroslav/bin --enable-gpl --enable-libass --enable-libfdk-aac --enable-libfreetype --enable-libmp3lame --enable-libopus --enable-libtheora --enable-libvorbis --enable-libvpx --enable-libx264 --enable-libx265 --enable-nvenc --enable-libmfx --enable-libxvid --enable-libgsm --enable-libopencore-amrnb --enable-version3 --enable-nonfree
  libavutil      55. 35.100 / 55. 35.100
  libavcodec     57. 66.101 / 57. 66.101
  libavformat    57. 57.100 / 57. 57.100
  libavdevice    57.  2.100 / 57.  2.100
  libavfilter     6. 66.100 /  6. 66.100
  libswscale      4.  3.100 /  4.  3.100
  libswresample   2.  4.100 /  2.  4.100
  libpostproc    54.  2.100 / 54.  2.100
Input #0, yuv4mpegpipe, from 'Input/y4m/old_town_cross_2160p50.y4m':
  Duration: 00:00:10.00, start: 0.000000, bitrate: 4976642 kb/s
    Stream #0:0: Video: rawvideo (I420 / 0x30323449), yuv420p(progressive), 3840x2160, SAR 1:1 DAR 16:9, 50 fps, 50 tbr, 50 tbn, 50 tbc
[libx264 @ 0x3437120] using SAR=1/1
[libx264 @ 0x3437120] DPB size (8 frames, 259200 mbs) > level limit (5 frames, 184320 mbs)
[libx264 @ 0x3437120] using cpu capabilities: MMX2 SSE2Fast SSSE3 SSE4.2 AVX FMA3 AVX2 LZCNT BMI2
[libx264 @ 0x3437120] profile High, level 5.2
[libx264 @ 0x3437120] 264 - core 148 - H.264/MPEG-4 AVC codec - Copyleft 2003-2016 - http://www.videolan.org/x264.html - options: cabac=1 ref=8 deblock=1:0:0 analyse=0x3:0x133 me=umh subme=9 psy=1 psy_rd=1.00:0.00 mixed_ref=1 me_range=16 chroma_me=1 trellis=2 8x8dct=1 cqm=0 deadzone=21,11 fast_pskip=1 chroma_qp_offset=-2 threads=6 lookahead_threads=1 sliced_threads=0 nr=0 decimate=1 interlaced=0 bluray_compat=0 constrained_intra=0 bframes=3 b_pyramid=2 b_adapt=2 b_bias=0 direct=3 weightb=1 open_gop=0 weightp=2 keyint=250 keyint_min=25 scenecut=40 intra_refresh=0 rc_lookahead=60 rc=abr mbtree=1 bitrate=7000 ratetol=1.0 qcomp=0.60 qpmin=0 qpmax=69 qpstep=4 ip_ratio=1.40 aq=1:1.00
Output #0, matroska, to 'Output/x264/encoded/old_town_cross_2160p50slower7000k.mkv':
  Metadata:
    encoder         : Lavf57.57.100
    Stream #0:0: Video: h264 (libx264) (H264 / 0x34363248), yuv420p, 3840x2160 [SAR 1:1 DAR 16:9], q=-1--1, 7000 kb/s, 50 fps, 1k tbn, 50 tbc
    Metadata:
      encoder         : Lavc57.66.101 libx264
    Side data:
      cpb: bitrate max/min/avg: 0/0/7000000 buffer size: 0 vbv_delay: -1
Stream mapping:
  Stream #0:0 -> #0:0 (rawvideo (native) -> h264 (libx264))
Press [q] to stop, [?] for help
frame=   62 fps=0.0 q=0.0 size=       0kB time=00:00:00.00 bitrate=N/A speed=   0x    frame=   67 fps= 17 q=0.0 size=       0kB time=00:00:00.00 bitrate=N/A speed=   0x    frame=   72 fps= 15 q=37.0 size=       1kB time=-00:00:00.01 bitrate=N/A speed=N/A    frame=   77 fps= 14 q=44.0 size=       1kB time=00:00:00.08 bitrate=  72.7kbits/s speed=0.0151x    frame=   81 fps= 14 q=41.0 size=       1kB time=00:00:00.16 bitrate=  36.6kbits/s speed=0.0272x    frame=   84 fps= 12 q=42.0 size=       1kB time=00:00:00.22 bitrate=  26.6kbits/s speed=0.0328x    frame=   89 fps= 12 q=39.0 size=       1kB time=00:00:00.32 bitrate=  18.3kbits/s speed=0.0437x    frame=   92 fps= 11 q=39.0 size=       1kB time=00:00:00.38 bitrate=  15.5kbits/s speed=0.0472x    frame=   96 fps= 11 q=37.0 size=       1kB time=00:00:00.46 bitrate=  12.8kbits/s speed=0.0521x    frame=  100 fps= 10 q=37.0 size=       1kB time=00:00:00.54 bitrate=  10.9kbits/s speed=0.0566x    frame=  103 fps=9.9 q=37.0 size=       1kB time=00:00:00.60 bitrate=   9.8kbits/s speed=0.0576x    frame=  107 fps=9.7 q=37.0 size=       1kB time=00:00:00.68 bitrate=   8.6kbits/s speed=0.062x    frame=  109 fps=9.4 q=36.0 size=       1kB time=00:00:00.72 bitrate=   8.2kbits/s speed=0.0625x    frame=  111 fps=9.1 q=36.0 size=       1kB time=00:00:00.76 bitrate=   7.7kbits/s speed=0.0625x    frame=  115 fps=9.0 q=36.0 size=       1kB time=00:00:00.84 bitrate=   7.0kbits/s speed=0.0658x    frame=  116 fps=8.7 q=36.0 size=       1kB time=00:00:00.86 bitrate=   6.8kbits/s speed=0.0646x    frame=  120 fps=8.6 q=36.0 size=       1kB time=00:00:00.94 bitrate=   6.3kbits/s speed=0.0678x    frame=  122 fps=8.2 q=36.0 size=       1kB time=00:00:00.98 bitrate=   6.0kbits/s speed=0.0662x    frame=  127 fps=8.3 q=35.0 size=       1kB time=00:00:01.08 bitrate=   5.4kbits/s speed=0.0705x    frame=  128 fps=8.0 q=36.0 size=       1kB time=00:00:01.10 bitrate=   5.3kbits/s speed=0.0686x    frame=  131 fps=7.8 q=35.0 size=       1kB time=00:00:01.16 bitrate=   5.1kbits/s speed=0.0692x    frame=  134 fps=7.7 q=35.0 size=       1kB time=00:00:01.22 bitrate=   4.8kbits/s speed=0.0703x    frame=  136 fps=7.6 q=35.0 size=       1kB time=00:00:01.26 bitrate=   4.7kbits/s speed=0.0703x    frame=  138 fps=7.4 q=35.0 size=       1kB time=00:00:01.30 bitrate=   4.5kbits/s speed=0.07x    frame=  142 fps=7.3 q=35.0 size=       1kB time=00:00:01.38 bitrate=   4.3kbits/s speed=0.0713x    frame=  145 fps=7.3 q=35.0 size=       1kB time=00:00:01.44 bitrate=   4.1kbits/s speed=0.0721x    frame=  147 fps=7.1 q=35.0 size=       1kB time=00:00:01.48 bitrate=   4.0kbits/s speed=0.0717x    frame=  150 fps=7.0 q=35.0 size=       1kB time=00:00:01.54 bitrate=   3.8kbits/s speed=0.0723x    frame=  153 fps=7.0 q=35.0 size=       1kB time=00:00:01.60 bitrate=   3.7kbits/s speed=0.0732x    frame=  154 fps=6.9 q=35.0 size=       1kB time=00:00:01.62 bitrate=   3.6kbits/s speed=0.0723x    frame=  159 fps=6.9 q=35.0 size=       1kB time=00:00:01.72 bitrate=   3.4kbits/s speed=0.0749x    frame=  160 fps=6.8 q=35.0 size=       1kB time=00:00:01.74 bitrate=   3.4kbits/s speed=0.0739x    frame=  162 fps=6.7 q=35.0 size=       1kB time=00:00:01.78 bitrate=   3.3kbits/s speed=0.0735x    frame=  164 fps=6.6 q=35.0 size=       1kB time=00:00:01.82 bitrate=   3.2kbits/s speed=0.0735x    frame=  168 fps=6.6 q=35.0 size=       1kB time=00:00:01.90 bitrate=   3.1kbits/s speed=0.0746x    frame=  169 fps=6.5 q=35.0 size=       1kB time=00:00:01.92 bitrate=   3.1kbits/s speed=0.0737x    frame=  173 fps=6.5 q=35.0 size=       1kB time=00:00:02.00 bitrate=   2.9kbits/s speed=0.0752x    frame=  175 fps=6.4 q=35.0 size=       1kB time=00:00:02.04 bitrate=   2.9kbits/s speed=0.0747x    frame=  177 fps=6.3 q=35.0 size=       1kB time=00:00:02.08 bitrate=   2.8kbits/s speed=0.0744x    frame=  181 fps=6.3 q=35.0 size=       1kB time=00:00:02.16 bitrate=   2.7kbits/s speed=0.0755x    frame=  183 fps=6.3 q=35.0 size=       1kB time=00:00:02.20 bitrate=   2.7kbits/s speed=0.0752x    frame=  185 fps=6.2 q=35.0 size=       1kB time=00:00:02.24 bitrate=   2.6kbits/s speed=0.075x    frame=  188 fps=6.2 q=35.0 size=       1kB time=00:00:02.30 bitrate=   2.6kbits/s speed=0.0754x    frame=  190 fps=6.1 q=35.0 size=       1kB time=00:00:02.34 bitrate=   2.5kbits/s speed=0.0754x    frame=  193 fps=6.1 q=35.0 size=       1kB time=00:00:02.40 bitrate=   2.5kbits/s speed=0.0756x    frame=  196 fps=6.0 q=35.0 size=       1kB time=00:00:02.46 bitrate=   2.4kbits/s speed=0.0758x    frame=  199 fps=5.9 q=35.0 size=       1kB time=00:00:02.52 bitrate=   2.3kbits/s speed=0.0751x    frame=  204 fps=5.9 q=35.0 size=       1kB time=00:00:02.62 bitrate=   2.2kbits/s speed=0.0761x    frame=  205 fps=5.9 q=35.0 size=       1kB time=00:00:02.64 bitrate=   2.2kbits/s speed=0.0755x    frame=  208 fps=5.8 q=35.0 size=       1kB time=00:00:02.70 bitrate=   2.2kbits/s speed=0.0759x    frame=  211 fps=5.7 q=35.0 size=       1kB time=00:00:02.76 bitrate=   2.1kbits/s speed=0.0752x    frame=  216 fps=5.8 q=35.0 size=       1kB time=00:00:02.86 bitrate=   2.1kbits/s speed=0.0764x    frame=  217 fps=5.7 q=35.0 size=       1kB time=00:00:02.88 bitrate=   2.0kbits/s speed=0.0758x    frame=  219 fps=5.7 q=35.0 size=       1kB time=00:00:02.92 bitrate=   2.0kbits/s speed=0.0756x    frame=  223 fps=5.6 q=35.0 size=       1kB time=00:00:03.00 bitrate=   2.0kbits/s speed=0.0758x    frame=  227 fps=5.6 q=35.0 size=       1kB time=00:00:03.08 bitrate=   1.9kbits/s speed=0.0758x    frame=  230 fps=5.6 q=35.0 size=       1kB time=00:00:03.14 bitrate=   1.9kbits/s speed=0.0759x    frame=  235 fps=5.5 q=35.0 size=       1kB time=00:00:03.24 bitrate=   1.8kbits/s speed=0.0763x    frame=  239 fps=5.5 q=35.0 size=       1kB time=00:00:03.32 bitrate=   1.8kbits/s speed=0.0763x    frame=  243 fps=5.5 q=35.0 size=       1kB time=00:00:03.40 bitrate=   1.7kbits/s speed=0.0763x    frame=  247 fps=5.5 q=35.0 size=       1kB time=00:00:03.48 bitrate=   1.7kbits/s speed=0.077x    frame=  249 fps=5.4 q=35.0 size=       1kB time=00:00:03.52 bitrate=   1.7kbits/s speed=0.0769x    frame=  251 fps=5.4 q=35.0 size=       1kB time=00:00:03.56 bitrate=   1.7kbits/s speed=0.0765x    frame=  255 fps=5.4 q=35.0 size=       1kB time=00:00:03.64 bitrate=   1.6kbits/s speed=0.0772x    frame=  257 fps=5.4 q=35.0 size=       1kB time=00:00:03.68 bitrate=   1.6kbits/s speed=0.0769x    frame=  259 fps=5.3 q=35.0 size=       1kB time=00:00:03.72 bitrate=   1.6kbits/s speed=0.0767x    frame=  262 fps=5.3 q=35.0 size=       1kB time=00:00:03.78 bitrate=   1.6kbits/s speed=0.0769x    frame=  265 fps=5.3 q=35.0 size=       1kB time=00:00:03.84 bitrate=   1.5kbits/s speed=0.0771x    frame=  267 fps=5.3 q=35.0 size=       1kB time=00:00:03.88 bitrate=   1.5kbits/s speed=0.0769x    frame=  270 fps=5.3 q=35.0 size=       1kB time=00:00:03.94 bitrate=   1.5kbits/s speed=0.077x    frame=  273 fps=5.3 q=35.0 size=       1kB time=00:00:04.00 bitrate=   1.5kbits/s speed=0.0772x    frame=  274 fps=5.2 q=35.0 size=       1kB time=00:00:04.02 bitrate=   1.5kbits/s speed=0.0766x    frame=  278 fps=5.2 q=35.0 size=       1kB time=00:00:04.10 bitrate=   1.4kbits/s speed=0.0772x    frame=  281 fps=5.2 q=35.0 size=       1kB time=00:00:04.16 bitrate=   1.4kbits/s speed=0.0766x    frame=  286 fps=5.2 q=35.0 size=       1kB time=00:00:04.26 bitrate=   1.4kbits/s speed=0.0776x    frame=  288 fps=5.2 q=35.0 size=       1kB time=00:00:04.30 bitrate=   1.4kbits/s speed=0.077x    frame=  291 fps=5.2 q=35.0 size=       1kB time=00:00:04.36 bitrate=   1.4kbits/s speed=0.0772x    frame=  294 fps=5.1 q=35.0 size=       1kB time=00:00:04.42 bitrate=   1.3kbits/s speed=0.0768x    frame=  298 fps=5.1 q=35.0 size=       1kB time=00:00:04.50 bitrate=   1.3kbits/s speed=0.0774x    frame=  300 fps=5.1 q=35.0 size=       1kB time=00:00:04.54 bitrate=   1.3kbits/s speed=0.0771x    frame=  303 fps=5.1 q=35.0 size=       1kB time=00:00:04.60 bitrate=   1.3kbits/s speed=0.077x    frame=  306 fps=5.1 q=35.0 size=       1kB time=00:00:04.66 bitrate=   1.3kbits/s speed=0.0772x    frame=  309 fps=5.1 q=35.0 size=       1kB time=00:00:04.72 bitrate=   1.2kbits/s speed=0.0772x    frame=  312 fps=5.0 q=35.0 size=       1kB time=00:00:04.78 bitrate=   1.2kbits/s speed=0.0773x    frame=  315 fps=5.0 q=32.0 size=       1kB time=00:00:04.84 bitrate=   1.2kbits/s speed=0.0772x    frame=  319 fps=5.0 q=35.0 size=       1kB time=00:00:04.92 bitrate=   1.2kbits/s speed=0.0775x    frame=  321 fps=5.0 q=35.0 size=    4018kB time=00:00:04.96 bitrate=6635.4kbits/s speed=0.0773x    frame=  324 fps=5.0 q=36.0 size=    4018kB time=00:00:05.02 bitrate=6556.1kbits/s speed=0.0776x    frame=  327 fps=5.0 q=36.0 size=    4018kB time=00:00:05.08 bitrate=6478.7kbits/s speed=0.0777x    frame=  331 fps=5.0 q=36.0 size=    4018kB time=00:00:05.16 bitrate=6378.3kbits/s speed=0.0778x    frame=  335 fps=5.0 q=36.0 size=    4018kB time=00:00:05.24 bitrate=6280.9kbits/s speed=0.0776x    frame=  339 fps=4.9 q=36.0 size=    4018kB time=00:00:05.32 bitrate=6186.5kbits/s speed=0.0775x    frame=  343 fps=4.9 q=36.0 size=    4018kB time=00:00:05.40 bitrate=6094.8kbits/s speed=0.0777x    frame=  347 fps=4.9 q=36.0 size=    4018kB time=00:00:05.48 bitrate=6005.9kbits/s speed=0.0774x    frame=  350 fps=4.9 q=36.0 size=    4018kB time=00:00:05.54 bitrate=5940.8kbits/s speed=0.0777x    frame=  354 fps=4.9 q=36.0 size=    4018kB time=00:00:05.62 bitrate=5856.3kbits/s speed=0.0774x    frame=  360 fps=4.9 q=36.0 size=    4018kB time=00:00:05.74 bitrate=5733.9kbits/s speed=0.0774x    frame=  364 fps=4.9 q=36.0 size=    4018kB time=00:00:05.82 bitrate=5655.1kbits/s speed=0.0778x    frame=  367 fps=4.9 q=36.0 size=    4018kB time=00:00:05.88 bitrate=5597.4kbits/s speed=0.0778x    frame=  369 fps=4.8 q=36.0 size=    4018kB time=00:00:05.92 bitrate=5559.6kbits/s speed=0.0777x    frame=  373 fps=4.8 q=36.0 size=    4018kB time=00:00:06.00 bitrate=5485.5kbits/s speed=0.078x    frame=  375 fps=4.8 q=36.0 size=    4018kB time=00:00:06.04 bitrate=5449.1kbits/s speed=0.0779x    frame=  379 fps=4.8 q=36.0 size=    4018kB time=00:00:06.12 bitrate=5377.9kbits/s speed=0.0778x    frame=  383 fps=4.8 q=36.0 size=    4018kB time=00:00:06.20 bitrate=5308.5kbits/s speed=0.078x    frame=  385 fps=4.8 q=36.0 size=    4018kB time=00:00:06.24 bitrate=5274.5kbits/s speed=0.0777x    frame=  390 fps=4.8 q=36.0 size=    4018kB time=00:00:06.34 bitrate=5191.3kbits/s speed=0.0784x    frame=  391 fps=4.8 q=36.0 size=    4018kB time=00:00:06.36 bitrate=5175.0kbits/s speed=0.0778x    frame=  396 fps=4.8 q=36.0 size=    4018kB time=00:00:06.46 bitrate=5094.9kbits/s speed=0.0781x    frame=  398 fps=4.8 q=36.0 size=    4018kB time=00:00:06.50 bitrate=5063.6kbits/s speed=0.078x    frame=  400 fps=4.8 q=36.0 size=    4018kB time=00:00:06.54 bitrate=5032.6kbits/s speed=0.0778x    frame=  404 fps=4.8 q=36.0 size=    4018kB time=00:00:06.62 bitrate=4971.8kbits/s speed=0.078x    frame=  407 fps=4.7 q=36.0 size=    4018kB time=00:00:06.68 bitrate=4927.1kbits/s speed=0.0779x    frame=  411 fps=4.7 q=36.0 size=    4018kB time=00:00:06.76 bitrate=4868.8kbits/s speed=0.0779x    frame=  414 fps=4.7 q=36.0 size=    4018kB time=00:00:06.82 bitrate=4826.0kbits/s speed=0.078x    frame=  417 fps=4.7 q=36.0 size=    4018kB time=00:00:06.88 bitrate=4783.9kbits/s speed=0.0782x    frame=  419 fps=4.7 q=36.0 size=    4018kB time=00:00:06.92 bitrate=4756.3kbits/s speed=0.078x    frame=  422 fps=4.7 q=36.0 size=    4018kB time=00:00:06.98 bitrate=4715.4kbits/s speed=0.0777x    frame=  427 fps=4.7 q=36.0 size=    4018kB time=00:00:07.08 bitrate=4648.8kbits/s speed=0.078x    frame=  428 fps=4.7 q=36.0 size=    4018kB time=00:00:07.10 bitrate=4635.7kbits/s speed=0.0778x    frame=  430 fps=4.7 q=36.0 size=    4018kB time=00:00:07.14 bitrate=4609.8kbits/s speed=0.0777x    frame=  434 fps=4.7 q=36.0 size=    4018kB time=00:00:07.22 bitrate=4558.7kbits/s speed=0.078x    frame=  436 fps=4.7 q=36.0 size=    4018kB time=00:00:07.26 bitrate=4533.6kbits/s speed=0.0779x    frame=  438 fps=4.7 q=36.0 size=    4018kB time=00:00:07.30 bitrate=4508.7kbits/s speed=0.0776x    frame=  442 fps=4.6 q=36.0 size=    4018kB time=00:00:07.38 bitrate=4459.9kbits/s speed=0.0776x    frame=  446 fps=4.7 q=36.0 size=    4018kB time=00:00:07.46 bitrate=4412.0kbits/s speed=0.0779x    frame=  448 fps=4.7 q=36.0 size=    4018kB time=00:00:07.50 bitrate=4388.5kbits/s speed=0.0779x    frame=  450 fps=4.6 q=36.0 size=    4018kB time=00:00:07.54 bitrate=4365.2kbits/s speed=0.0777x    frame=  453 fps=4.6 q=36.0 size=    4018kB time=00:00:07.60 bitrate=4330.8kbits/s speed=0.0776x    frame=  457 fps=4.6 q=36.0 size=    4018kB time=00:00:07.68 bitrate=4285.7kbits/s speed=0.0777x    frame=  461 fps=4.6 q=36.0 size=    4018kB time=00:00:07.76 bitrate=4241.5kbits/s speed=0.0779x    frame=  463 fps=4.6 q=36.0 size=    4018kB time=00:00:07.80 bitrate=4219.7kbits/s speed=0.0778x    frame=  467 fps=4.6 q=36.0 size=    4018kB time=00:00:07.88 bitrate=4176.9kbits/s speed=0.0779x    frame=  469 fps=4.6 q=36.0 size=    4018kB time=00:00:07.92 bitrate=4155.8kbits/s speed=0.0777x    frame=  473 fps=4.6 q=36.0 size=    4018kB time=00:00:08.00 bitrate=4114.3kbits/s speed=0.0781x    frame=  475 fps=4.6 q=36.0 size=    4018kB time=00:00:08.04 bitrate=4093.8kbits/s speed=0.0778x    frame=  479 fps=4.6 q=36.0 size=    4018kB time=00:00:08.12 bitrate=4053.5kbits/s speed=0.0778x    frame=  483 fps=4.6 q=36.0 size=    4018kB time=00:00:08.20 bitrate=4013.9kbits/s speed=0.078x    frame=  485 fps=4.6 q=36.0 size=    4018kB time=00:00:08.24 bitrate=3994.4kbits/s speed=0.078x    frame=  487 fps=4.6 q=36.0 size=    4018kB time=00:00:08.28 bitrate=3975.2kbits/s speed=0.078x    frame=  491 fps=4.6 q=36.0 size=    4018kB time=00:00:08.36 bitrate=3937.1kbits/s speed=0.078x    frame=  493 fps=4.6 q=36.0 size=    4018kB time=00:00:08.40 bitrate=3918.4kbits/s speed=0.078x    frame=  496 fps=4.6 q=36.0 size=    4018kB time=00:00:08.46 bitrate=3890.6kbits/s speed=0.0782x    frame=  498 fps=4.6 q=36.0 size=    4018kB time=00:00:08.50 bitrate=3872.3kbits/s speed=0.0781x    frame=  500 fps=4.0 q=-1.0 Lsize=    8631kB time=00:00:09.94 bitrate=7112.8kbits/s speed=0.0795x    
video:8627kB audio:0kB subtitle:0kB other streams:0kB global headers:0kB muxing overhead: 0.050905%
bench: utime=482.616s
bench: maxrss=2609632kB
[libx264 @ 0x3437120] frame I:3     Avg QP:31.72  size:312123
[libx264 @ 0x3437120] frame P:138   Avg QP:33.57  size: 30104
[libx264 @ 0x3437120] frame B:359   Avg QP:35.69  size: 10425
[libx264 @ 0x3437120] consecutive B-frames:  1.0%  2.0% 23.4% 73.6%
[libx264 @ 0x3437120] mb I  I16..4: 32.9% 60.8%  6.3%
[libx264 @ 0x3437120] mb P  I16..4:  0.0%  0.0%  0.0%  P16..4: 29.6%  1.3%  4.3%  0.0%  0.0%    skip:64.7%
[libx264 @ 0x3437120] mb B  I16..4:  0.0%  0.0%  0.0%  B16..8: 41.2%  0.1%  0.0%  direct: 0.0%  skip:58.7%  L0:47.8% L1:52.2% BI: 0.0%
[libx264 @ 0x3437120] final ratefactor: 27.60
[libx264 @ 0x3437120] 8x8 transform intra:60.8% inter:74.9%
[libx264 @ 0x3437120] direct mvs  spatial:99.2% temporal:0.8%
[libx264 @ 0x3437120] coded y,uvDC,uvAC intra: 74.5% 59.4% 35.5% inter: 1.8% 2.4% 0.0%
[libx264 @ 0x3437120] i16 v,h,dc,p: 11% 24%  9% 56%
[libx264 @ 0x3437120] i8 v,h,dc,ddl,ddr,vr,hd,vl,hu:  4%  6%  1% 14% 20% 14% 20%  9% 12%
[libx264 @ 0x3437120] i4 v,h,dc,ddl,ddr,vr,hd,vl,hu:  3%  4%  2% 14% 18% 14% 20% 10% 15%
[libx264 @ 0x3437120] i8c dc,h,v,p: 29% 44% 16% 11%
[libx264 @ 0x3437120] Weighted P-Frames: Y:0.7% UV:0.0%
[libx264 @ 0x3437120] ref P L0: 63.1% 22.4%  8.5%  1.5%  1.5%  1.1%  1.3%  0.4%  0.0%
[libx264 @ 0x3437120] ref B L0: 83.6%  7.0%  5.3%  1.3%  1.2%  1.1%  0.5%
[libx264 @ 0x3437120] ref B L1: 96.9%  3.1%
[libx264 @ 0x3437120] kb/s:7066.66
